<svg width="585" height="552" viewBox="0 0 585 552" fill="none" xmlns="http://www.w3.org/2000/svg">
<path d="M59.9135 492.102H23.9832C20.1273 492.102 16.9724 488.947 16.9724 485.091L15.6579 170.49H68.2388L66.9242 485.091C66.9242 489.035 63.7694 492.102 59.9135 492.102Z" fill="#543889" stroke="#543889" stroke-width="8" stroke-miterlimit="10" stroke-linecap="round" stroke-linejoin="round"/>
<path d="M63.8571 167.073H20.0397L22.0553 151.124H61.7539L63.8571 167.073Z" fill="#543889" stroke="#543889" stroke-width="8" stroke-miterlimit="10" stroke-linecap="round" stroke-linejoin="round"/>
<path d="M58.9495 151.124H24.8596L27.1381 109.235H56.7586L58.9495 151.124Z" fill="#543889" stroke="#543889" stroke-width="8" stroke-miterlimit="10" stroke-linecap="round" stroke-linejoin="round"/>
<path d="M51.7634 109.235H31.7827V84.4353L51.7634 66.9088V109.235Z" fill="#543889" stroke="#543889" stroke-width="8" stroke-miterlimit="10" stroke-linecap="round" stroke-linejoin="round"/>
<path d="M48.5209 481.586H12.5907C8.73475 481.586 5.5799 478.431 5.5799 474.575L4.26538 159.974H56.8463L55.5317 474.575C55.5317 478.519 52.3769 481.586 48.5209 481.586Z" fill="#00B3C6"/>
<path d="M22.5811 474.663L21.2666 160.062H4.1778L5.49232 474.663C5.49232 478.519 8.64717 481.674 12.5031 481.674H29.5919C25.7359 481.586 22.5811 478.519 22.5811 474.663Z" fill="#00B3C6"/>
<path opacity="0.53" d="M38.443 474.663L39.7575 160.062H56.8463L55.5318 474.663C55.5318 478.519 52.3769 481.674 48.521 481.674H31.4322C35.2881 481.586 38.443 478.519 38.443 474.663Z" fill="#00B3C6"/>
<path d="M48.5209 481.586H12.5907C8.73475 481.586 5.5799 478.431 5.5799 474.575L4.26538 159.974H56.8463L55.5317 474.575C55.5317 478.519 52.3769 481.586 48.5209 481.586Z" stroke="#1F2120" stroke-width="8" stroke-miterlimit="10" stroke-linecap="round" stroke-linejoin="round"/>
<path d="M52.4645 160.062H8.64716L10.6628 144.113H50.3613L52.4645 160.062Z" fill="#414141"/>
<path d="M52.4645 160.062H8.64716L10.6628 144.113H50.3613L52.4645 160.062Z" stroke="#1F2120" stroke-width="8" stroke-miterlimit="10" stroke-linecap="round" stroke-linejoin="round"/>
<path d="M47.557 144.113H13.467L15.7456 102.225H45.3661L47.557 144.113Z" fill="#00B3C6"/>
<path d="M15.7456 102.225L13.467 144.113H25.3854L25.6483 102.225H15.7456Z" fill="#00B3C6"/>
<path opacity="0.53" d="M46.2425 102.225L48.4334 144.113H36.5151L35.2881 102.225H46.2425Z" fill="#00B3C6"/>
<path d="M47.557 144.113H13.467L15.7456 102.225H45.3661L47.557 144.113Z" stroke="#1F2120" stroke-width="8" stroke-miterlimit="10" stroke-linecap="round" stroke-linejoin="round"/>
<path d="M47.557 144.113H13.467L15.7456 102.225H45.3661L47.557 144.113Z" stroke="#1F2120" stroke-width="8" stroke-miterlimit="10" stroke-linecap="round" stroke-linejoin="round"/>
<path d="M47.557 144.113H13.467L15.7456 102.225H45.3661L47.557 144.113Z" stroke="#1F2120" stroke-width="8" stroke-miterlimit="10" stroke-linecap="round" stroke-linejoin="round"/>
<path d="M47.557 144.113H13.467L15.7456 102.225H45.3661L47.557 144.113Z" stroke="#1F2120" stroke-width="8" stroke-miterlimit="10" stroke-linecap="round" stroke-linejoin="round"/>
<path d="M40.3709 102.225H20.3902V77.4246L40.3709 59.8981V102.225Z" fill="#FFC41D"/>
<path d="M40.3709 102.225H20.3902V77.4246L40.3709 59.8981V102.225Z" stroke="#1F2120" stroke-width="8" stroke-miterlimit="10" stroke-linecap="round" stroke-linejoin="round"/>
<path d="M5.40466 452.667L5.49228 474.575C5.49228 478.431 8.64713 481.586 12.5031 481.586H48.4333C52.2893 481.586 55.4441 478.431 55.4441 474.575L55.5317 452.667H5.40466Z" fill="#414141"/>
<path opacity="0.4" d="M38.6182 452.667L38.5306 474.575C38.5306 478.431 35.3758 481.586 31.5198 481.586H48.4333C52.2893 481.586 55.4441 478.431 55.4441 474.575L55.5317 452.667H38.6182Z" fill="#414141"/>
<path d="M23.0192 474.663L22.9316 452.755H5.40466L5.49228 474.663C5.49228 478.519 8.64713 481.674 12.5031 481.674H30.03C26.1741 481.586 23.1069 478.519 23.0192 474.663Z" fill="#414141"/>
<path d="M5.40466 452.667L5.49228 474.575C5.49228 478.431 8.64713 481.586 12.5031 481.586H48.4333C52.2893 481.586 55.4441 478.431 55.4441 474.575L55.5317 452.667H5.40466Z" stroke="#1F2120" stroke-width="8" stroke-miterlimit="10" stroke-linecap="round" stroke-linejoin="round"/>
<path d="M164.237 123.23H126.775V299.998H164.237V123.23Z" fill="#543889" stroke="#543889" stroke-width="8" stroke-miterlimit="10" stroke-linecap="round" stroke-linejoin="round"/>
<path d="M164.705 419.404C152.062 419.404 139.301 419.404 126.658 419.404C124.2 393.65 124.2 366.725 126.658 339.8C139.301 339.8 152.062 339.8 164.705 339.8C167.164 366.725 167.164 393.65 164.705 419.404Z" fill="#543889" stroke="#543889" stroke-width="8" stroke-miterlimit="10" stroke-linecap="round" stroke-linejoin="round"/>
<path d="M164.705 339.8C152.062 339.8 139.302 339.8 126.658 339.8C134.502 328.094 134.502 312.875 126.658 299.998C139.302 299.998 152.062 299.998 164.705 299.998C156.862 312.875 156.862 328.094 164.705 339.8Z" fill="#543889" stroke="#543889" stroke-width="8" stroke-miterlimit="10" stroke-linecap="round" stroke-linejoin="round"/>
<path d="M150.54 474.425C156.862 455.694 164.471 438.135 164.705 419.404H126.658C126.892 438.135 134.502 455.694 140.824 474.425H150.54Z" fill="#543889" stroke="#543889" stroke-width="8" stroke-miterlimit="10" stroke-linecap="round" stroke-linejoin="round"/>
<path d="M150.188 474.425H140.823V481.449H150.188V474.425Z" fill="#543889" stroke="#543889" stroke-width="8" stroke-miterlimit="10" stroke-linecap="round" stroke-linejoin="round"/>
<path d="M145.506 482.619V497.838" stroke="#543889" stroke-width="8" stroke-miterlimit="10" stroke-linecap="round" stroke-linejoin="round"/>
<path d="M159.554 97.4762H131.458V123.23H159.554V97.4762Z" fill="#543889" stroke="#543889" stroke-width="8" stroke-miterlimit="10" stroke-linecap="round" stroke-linejoin="round"/>
<path d="M156.042 97.4762H134.97V67.3905C134.97 63.2932 138.716 60.0154 142.813 60.0154H148.667C152.764 60.0154 156.042 63.2932 156.042 67.3905V97.4762Z" fill="#543889" stroke="#543889" stroke-width="8" stroke-miterlimit="10" stroke-linecap="round" stroke-linejoin="round"/>
<path d="M177.114 139.62H140.823V160.691H177.114V139.62Z" fill="#543889" stroke="#543889" stroke-width="8" stroke-miterlimit="10" stroke-linecap="round" stroke-linejoin="round"/>
<path d="M177.114 232.452L164.237 215.477V160.691H177.114V232.452Z" fill="#543889" stroke="#543889" stroke-width="8" stroke-miterlimit="10" stroke-linecap="round" stroke-linejoin="round"/>
<path d="M156.511 333.947C143.867 333.947 131.107 333.947 118.464 333.947C126.307 322.241 126.307 307.022 118.464 294.145C131.107 294.145 143.867 294.145 156.511 294.145C148.667 307.022 148.667 322.241 156.511 333.947Z" fill="#102D3B"/>
<path d="M156.042 117.377H118.58V294.145H156.042V117.377Z" fill="#526066"/>
<path d="M156.042 117.377H118.58V294.145H156.042V117.377Z" fill="#526066"/>
<path opacity="0.64" d="M130.287 117.377H118.58V294.145H130.287V117.377Z" fill="#526066"/>
<path opacity="0.3" d="M156.042 117.377H145.506V294.145H156.042V117.377Z" fill="#526066"/>
<path d="M156.042 117.377H118.58V294.145H156.042V117.377Z" stroke="#102D3B" stroke-width="8" stroke-miterlimit="10" stroke-linecap="round" stroke-linejoin="round"/>
<path d="M156.51 413.551C143.867 413.551 131.107 413.551 118.463 413.551C116.005 387.797 116.005 360.872 118.463 333.947C131.107 333.947 143.867 333.947 156.51 333.947C158.969 360.872 158.969 387.797 156.51 413.551Z" fill="#42708A"/>
<path d="M156.51 413.551C143.867 413.551 131.107 413.551 118.463 413.551C116.005 387.797 116.005 360.872 118.463 333.947C131.107 333.947 143.867 333.947 156.51 333.947C158.969 360.872 158.969 387.797 156.51 413.551Z" fill="#526066"/>
<path opacity="0.3" d="M156.51 333.947C153.466 333.947 150.422 333.947 147.378 333.947C149.837 360.872 149.837 387.797 147.378 413.551C150.422 413.551 153.466 413.551 156.51 413.551C158.968 387.797 158.968 360.872 156.51 333.947Z" fill="#526066"/>
<path opacity="0.73" d="M131.926 412.38C130.053 412.38 128.297 412.38 126.424 412.38C123.965 386.977 123.965 360.521 126.307 333.947C128.18 333.947 130.053 333.947 131.926 333.947C129.585 360.521 129.585 386.977 131.926 412.38Z" fill="#CCDDE5"/>
<path d="M156.51 413.551C143.867 413.551 131.107 413.551 118.463 413.551C116.005 387.797 116.005 360.872 118.463 333.947C131.107 333.947 143.867 333.947 156.51 333.947C158.969 360.872 158.969 387.797 156.51 413.551Z" stroke="#102D3B" stroke-width="8" stroke-miterlimit="10" stroke-linecap="round" stroke-linejoin="round"/>
<path d="M158.383 362.043H116.239V386.626H158.383V362.043Z" stroke="#102D3B" stroke-width="8" stroke-miterlimit="10" stroke-linecap="round" stroke-linejoin="round"/>
<path d="M156.511 333.947C143.867 333.947 131.107 333.947 118.464 333.947C126.307 322.241 126.307 307.022 118.464 294.145C131.107 294.145 143.867 294.145 156.511 294.145C148.667 307.022 148.667 322.241 156.511 333.947Z" stroke="#102D3B" stroke-width="8" stroke-miterlimit="10" stroke-linecap="round" stroke-linejoin="round"/>
<path d="M142.345 468.571C148.667 449.841 156.276 432.281 156.511 413.551H118.464C118.698 432.281 126.307 449.841 132.629 468.571H142.345Z" fill="#CCDDE5"/>
<path d="M156.511 413.551C156.511 413.902 156.511 414.37 156.511 414.722H131.458C131.575 433.101 134.853 450.661 138.716 468.571H132.629C126.307 449.841 118.698 432.281 118.464 413.551H156.511Z" fill="white"/>
<path d="M142.345 468.571C148.667 449.841 156.276 432.281 156.511 413.551H118.464C118.698 432.281 126.307 449.841 132.629 468.571H142.345Z" stroke="#102D3B" stroke-width="8" stroke-miterlimit="10" stroke-linecap="round" stroke-linejoin="round"/>
<path d="M141.994 468.572H132.628V475.595H141.994V468.572Z" stroke="#102D3B" stroke-width="8" stroke-miterlimit="10" stroke-linecap="round" stroke-linejoin="round"/>
<path d="M137.311 476.766V491.984" stroke="#102D3B" stroke-width="8" stroke-miterlimit="10" stroke-linecap="round" stroke-linejoin="round"/>
<path d="M151.359 91.623H123.263V117.377H151.359V91.623Z" stroke="#102D3B" stroke-width="8" stroke-miterlimit="10" stroke-linecap="round" stroke-linejoin="round"/>
<path d="M151.359 91.623H123.263V117.377H151.359V91.623Z" fill="#102D3B"/>
<path d="M147.847 91.623H126.775V61.5373C126.775 57.44 130.521 54.1622 134.618 54.1622H140.472C144.569 54.1622 147.847 57.44 147.847 61.5373V91.623Z" fill="#CCDDE5"/>
<path d="M147.847 91.623H126.775V61.5373C126.775 57.44 130.521 54.1622 134.618 54.1622H140.472C144.569 54.1622 147.847 57.44 147.847 61.5373V91.623Z" stroke="#102D3B" stroke-width="8" stroke-miterlimit="10" stroke-linecap="round" stroke-linejoin="round"/>
<path d="M168.919 133.766H132.628V154.838H168.919V133.766Z" fill="#CCDDE5"/>
<path d="M168.919 133.766H132.628V154.838H168.919V133.766Z" stroke="#102D3B" stroke-width="8" stroke-miterlimit="10" stroke-linecap="round" stroke-linejoin="round"/>
<path d="M168.919 226.599L156.042 209.624V154.838H168.919V226.599Z" fill="#CCDDE5"/>
<path d="M168.919 226.599L156.042 209.624V154.838H168.919V226.599Z" stroke="#102D3B" stroke-width="8" stroke-miterlimit="10" stroke-linecap="round" stroke-linejoin="round"/>
<path d="M559.928 494.501H236.821V30.9249H559.928C571.518 30.9249 581 40.056 581 51.6454V473.079C581 484.785 571.518 494.501 559.928 494.501Z" fill="#543889" stroke="#543889" stroke-width="8" stroke-miterlimit="10" stroke-linecap="round" stroke-linejoin="round"/>
<path d="M514.271 503.867H497.882C494.604 503.867 492.029 501.291 492.029 498.013V27.4129C492.029 24.1351 494.604 21.5597 497.882 21.5597H514.271C517.549 21.5597 520.125 24.1351 520.125 27.4129V498.013C520.125 501.291 517.549 503.867 514.271 503.867Z" fill="#543889" stroke="#543889" stroke-width="8" stroke-miterlimit="10" stroke-linecap="round" stroke-linejoin="round"/>
<path d="M308.232 548L273.112 528.45V494.501H308.232V548Z" fill="#543889" stroke="#543889" stroke-width="8" stroke-miterlimit="10" stroke-linecap="round" stroke-linejoin="round"/>
<path d="M548.221 476.942H225.114V13.3652H548.221C559.811 13.3652 569.293 22.4962 569.293 34.0857V455.519C569.293 467.225 559.811 476.942 548.221 476.942Z" fill="#4C5B60"/>
<mask id="mask0_5_1347" style="mask-type:alpha" maskUnits="userSpaceOnUse" x="225" y="15" width="345" height="465">
<path d="M548.221 479.283H225.114V15.7065H548.221C559.811 15.7065 569.293 24.8375 569.293 36.427V457.86C569.293 469.567 559.811 479.283 548.221 479.283Z" fill="white"/>
</mask>
<g mask="url(#mask0_5_1347)">
<path opacity="0.11" d="M195.144 833.522C194.676 833.522 194.208 833.405 193.857 833.053C193.154 832.351 193.154 831.297 193.857 830.595L597.038 427.541C597.74 426.839 598.794 426.839 599.496 427.541C600.199 428.243 600.199 429.297 599.496 429.999L196.432 833.053C196.081 833.405 195.613 833.522 195.144 833.522Z" fill="#102D3B"/>
<path opacity="0.11" d="M195.144 817.133C194.676 817.133 194.208 817.016 193.857 816.664C193.154 815.962 193.154 814.908 193.857 814.206L597.038 411.152C597.74 410.45 598.794 410.45 599.496 411.152C600.199 411.854 600.199 412.908 599.496 413.61L196.432 816.664C196.081 817.016 195.613 817.133 195.144 817.133Z" fill="#102D3B"/>
<path opacity="0.11" d="M195.144 800.743C194.676 800.743 194.208 800.626 193.857 800.275C193.154 799.573 193.154 798.519 193.857 797.817L597.038 394.763C597.74 394.06 598.794 394.06 599.496 394.763C600.199 395.465 600.199 396.519 599.496 397.221L196.432 800.275C196.081 800.626 195.613 800.743 195.144 800.743Z" fill="#102D3B"/>
<path opacity="0.11" d="M195.144 784.354C194.676 784.354 194.208 784.237 193.857 783.886C193.154 783.184 193.154 782.13 193.857 781.428L597.038 378.374C597.74 377.671 598.794 377.671 599.496 378.374C600.199 379.076 600.199 380.13 599.496 380.832L196.432 783.886C196.081 784.237 195.613 784.354 195.144 784.354Z" fill="#102D3B"/>
<path opacity="0.11" d="M195.144 767.965C194.676 767.965 194.208 767.848 193.857 767.497C193.154 766.795 193.154 765.741 193.857 765.039L597.038 361.985C597.74 361.282 598.794 361.282 599.496 361.985C600.199 362.687 600.199 363.741 599.496 364.443L196.432 767.497C196.081 767.848 195.613 767.965 195.144 767.965Z" fill="#102D3B"/>
<path opacity="0.11" d="M195.144 751.576C194.676 751.576 194.208 751.459 193.857 751.108C193.154 750.406 193.154 749.352 193.857 748.65L597.038 345.596C597.74 344.893 598.794 344.893 599.496 345.596C600.199 346.298 600.199 347.352 599.496 348.054L196.432 751.108C196.081 751.459 195.613 751.576 195.144 751.576Z" fill="#102D3B"/>
<path opacity="0.11" d="M195.144 735.187C194.676 735.187 194.208 735.07 193.857 734.719C193.154 734.017 193.154 732.963 193.857 732.261L597.038 329.207C597.74 328.504 598.794 328.504 599.496 329.207C600.199 329.909 600.199 330.963 599.496 331.665L196.432 734.719C196.081 735.07 195.613 735.187 195.144 735.187Z" fill="#102D3B"/>
<path opacity="0.11" d="M195.144 718.798C194.676 718.798 194.208 718.681 193.857 718.33C193.154 717.628 193.154 716.574 193.857 715.872L597.038 312.818C597.74 312.115 598.794 312.115 599.496 312.818C600.199 313.52 600.199 314.574 599.496 315.276L196.432 718.33C196.081 718.681 195.613 718.798 195.144 718.798Z" fill="#102D3B"/>
<path opacity="0.11" d="M195.144 702.409C194.676 702.409 194.208 702.292 193.857 701.941C193.154 701.239 193.154 700.185 193.857 699.483L597.038 296.429C597.74 295.726 598.794 295.726 599.496 296.429C600.199 297.131 600.199 298.185 599.496 298.887L196.432 701.941C196.081 702.292 195.613 702.409 195.144 702.409Z" fill="#102D3B"/>
<path opacity="0.11" d="M195.144 686.02C194.676 686.02 194.208 685.903 193.857 685.552C193.154 684.849 193.154 683.796 193.857 683.093L597.038 280.039C597.74 279.337 598.794 279.337 599.496 280.039C600.199 280.742 600.199 281.796 599.496 282.498L196.432 685.552C196.081 685.903 195.613 686.02 195.144 686.02Z" fill="#102D3B"/>
<path opacity="0.11" d="M195.144 669.631C194.676 669.631 194.208 669.514 193.857 669.163C193.154 668.46 193.154 667.407 193.857 666.704L597.038 263.65C597.74 262.948 598.794 262.948 599.496 263.65C600.199 264.353 600.199 265.406 599.496 266.109L196.432 669.163C196.081 669.514 195.613 669.631 195.144 669.631Z" fill="#102D3B"/>
<path opacity="0.11" d="M195.144 653.242C194.676 653.242 194.208 653.125 193.857 652.774C193.154 652.071 193.154 651.018 193.857 650.315L597.038 247.261C597.74 246.559 598.794 246.559 599.496 247.261C600.199 247.964 600.199 249.017 599.496 249.72L196.432 652.774C196.081 653.125 195.613 653.242 195.144 653.242Z" fill="#102D3B"/>
<path opacity="0.11" d="M195.144 636.853C194.676 636.853 194.208 636.736 193.857 636.385C193.154 635.682 193.154 634.629 193.857 633.926L597.038 230.872C597.74 230.17 598.794 230.17 599.496 230.872C600.199 231.575 600.199 232.628 599.496 233.331L196.432 636.385C196.081 636.736 195.613 636.853 195.144 636.853Z" fill="#102D3B"/>
<path opacity="0.11" d="M195.144 620.464C194.676 620.464 194.208 620.347 193.857 619.995C193.154 619.293 193.154 618.239 193.857 617.537L597.038 214.483C597.74 213.781 598.794 213.781 599.496 214.483C600.199 215.185 600.199 216.239 599.496 216.941L196.432 619.995C196.081 620.347 195.613 620.464 195.144 620.464Z" fill="#102D3B"/>
<path opacity="0.11" d="M195.144 604.075C194.676 604.075 194.208 603.958 193.857 603.607C193.154 602.904 193.154 601.851 193.857 601.148L597.038 198.094C597.74 197.392 598.794 197.392 599.496 198.094C600.199 198.797 600.199 199.85 599.496 200.553L196.432 603.607C196.081 603.958 195.613 604.075 195.144 604.075Z" fill="#102D3B"/>
<path opacity="0.11" d="M195.144 587.686C194.676 587.686 194.208 587.569 193.857 587.217C193.154 586.515 193.154 585.461 193.857 584.759L597.038 181.705C597.74 181.003 598.794 181.003 599.496 181.705C600.199 182.407 600.199 183.461 599.496 184.163L196.432 587.217C196.081 587.569 195.613 587.686 195.144 587.686Z" fill="#102D3B"/>
<path opacity="0.11" d="M195.144 571.297C194.676 571.297 194.208 571.18 193.857 570.828C193.154 570.126 193.154 569.072 193.857 568.37L597.038 165.316C597.74 164.614 598.794 164.614 599.496 165.316C600.199 166.018 600.199 167.072 599.496 167.774L196.432 570.828C196.081 571.18 195.613 571.297 195.144 571.297Z" fill="#102D3B"/>
<path opacity="0.11" d="M195.144 554.908C194.676 554.908 194.208 554.791 193.857 554.439C193.154 553.737 193.154 552.683 193.857 551.981L597.038 148.927C597.74 148.225 598.794 148.225 599.496 148.927C600.199 149.629 600.199 150.683 599.496 151.385L196.432 554.439C196.081 554.791 195.613 554.908 195.144 554.908Z" fill="#102D3B"/>
<path opacity="0.11" d="M195.144 538.518C194.676 538.518 194.208 538.401 193.857 538.05C193.154 537.348 193.154 536.294 193.857 535.592L597.038 132.538C597.74 131.835 598.794 131.835 599.496 132.538C600.199 133.24 600.199 134.294 599.496 134.996L196.432 538.05C196.081 538.401 195.613 538.518 195.144 538.518Z" fill="#102D3B"/>
<path opacity="0.11" d="M195.144 522.129C194.676 522.129 194.208 522.012 193.857 521.661C193.154 520.959 193.154 519.905 193.857 519.203L597.038 116.149C597.74 115.446 598.794 115.446 599.496 116.149C600.199 116.851 600.199 117.905 599.496 118.607L196.432 521.661C196.081 522.012 195.613 522.129 195.144 522.129Z" fill="#102D3B"/>
<path opacity="0.11" d="M195.144 505.74C194.676 505.74 194.208 505.623 193.857 505.272C193.154 504.57 193.154 503.516 193.857 502.814L597.038 99.7597C597.74 99.0573 598.794 99.0573 599.496 99.7597C600.199 100.462 600.199 101.516 599.496 102.218L196.432 505.272C196.081 505.623 195.613 505.74 195.144 505.74Z" fill="#102D3B"/>
<path opacity="0.11" d="M195.144 489.351C194.676 489.351 194.208 489.234 193.857 488.883C193.154 488.181 193.154 487.127 193.857 486.425L597.038 83.3707C597.74 82.6683 598.794 82.6683 599.496 83.3707C600.199 84.0731 600.199 85.1266 599.496 85.829L196.432 488.883C196.081 489.234 195.613 489.351 195.144 489.351Z" fill="#102D3B"/>
<path opacity="0.11" d="M195.144 472.962C194.676 472.962 194.208 472.845 193.857 472.494C193.154 471.792 193.154 470.738 193.857 470.036L597.038 66.9816C597.74 66.2792 598.794 66.2792 599.496 66.9816C600.199 67.684 600.199 68.7375 599.496 69.4399L196.432 472.494C196.081 472.845 195.613 472.962 195.144 472.962Z" fill="#102D3B"/>
<path opacity="0.11" d="M195.144 456.573C194.676 456.573 194.208 456.456 193.857 456.105C193.154 455.402 193.154 454.349 193.857 453.646L597.038 50.5925C597.74 49.8901 598.794 49.8901 599.496 50.5925C600.199 51.2949 600.199 52.3484 599.496 53.0508L196.432 456.105C196.081 456.456 195.613 456.573 195.144 456.573Z" fill="#102D3B"/>
<path opacity="0.11" d="M195.144 440.184C194.676 440.184 194.208 440.067 193.857 439.716C193.154 439.013 193.154 437.96 193.857 437.257L597.038 34.2034C597.74 33.501 598.794 33.501 599.496 34.2034C600.199 34.9058 600.199 35.9594 599.496 36.6618L196.432 439.716C196.081 440.067 195.613 440.184 195.144 440.184Z" fill="#102D3B"/>
<path opacity="0.11" d="M195.144 423.795C194.676 423.795 194.208 423.678 193.857 423.327C193.154 422.624 193.154 421.571 193.857 420.868L597.038 17.8144C597.74 17.112 598.794 17.112 599.496 17.8144C600.199 18.5168 600.199 19.5704 599.496 20.2728L196.432 423.327C196.081 423.678 195.613 423.795 195.144 423.795Z" fill="#102D3B"/>
<path opacity="0.11" d="M195.144 407.406C194.676 407.406 194.208 407.289 193.857 406.938C193.154 406.235 193.154 405.182 193.857 404.479L597.038 1.42529C597.74 0.722901 598.794 0.722901 599.496 1.42529C600.199 2.12768 600.199 3.18127 599.496 3.88366L196.432 406.938C196.081 407.289 195.613 407.406 195.144 407.406Z" fill="#102D3B"/>
<path opacity="0.11" d="M195.144 391.017C194.676 391.017 194.208 390.9 193.857 390.549C193.154 389.846 193.154 388.793 193.857 388.09L597.038 -14.9638C597.74 -15.6662 598.794 -15.6662 599.496 -14.9638C600.199 -14.2614 600.199 -13.2078 599.496 -12.5054L196.432 390.549C196.081 390.9 195.613 391.017 195.144 391.017Z" fill="#102D3B"/>
<path opacity="0.11" d="M195.144 374.628C194.676 374.628 194.208 374.511 193.857 374.16C193.154 373.457 193.154 372.404 193.857 371.701L597.038 -31.3528C597.74 -32.0552 598.794 -32.0552 599.496 -31.3528C600.199 -30.6505 600.199 -29.5969 599.496 -28.8945L196.432 374.16C196.081 374.511 195.613 374.628 195.144 374.628Z" fill="#102D3B"/>
<path opacity="0.11" d="M195.144 358.239C194.676 358.239 194.208 358.122 193.857 357.77C193.154 357.068 193.154 356.014 193.857 355.312L597.038 -47.7419C597.74 -48.4443 598.794 -48.4443 599.496 -47.7419C600.199 -47.0395 600.199 -45.9859 599.496 -45.2835L196.432 357.77C196.081 358.122 195.613 358.239 195.144 358.239Z" fill="#102D3B"/>
<path opacity="0.11" d="M195.144 341.85C194.676 341.85 194.208 341.733 193.857 341.381C193.154 340.679 193.154 339.625 193.857 338.923L597.038 -64.131C597.74 -64.8334 598.794 -64.8334 599.496 -64.131C600.199 -63.4286 600.199 -62.375 599.496 -61.6726L196.432 341.381C196.081 341.733 195.613 341.85 195.144 341.85Z" fill="#102D3B"/>
<path opacity="0.11" d="M195.144 325.461C194.676 325.461 194.208 325.344 193.857 324.992C193.154 324.29 193.154 323.236 193.857 322.534L597.038 -80.52C597.74 -81.2224 598.794 -81.2224 599.496 -80.52C600.199 -79.8176 600.199 -78.7641 599.496 -78.0617L196.432 324.992C196.081 325.344 195.613 325.461 195.144 325.461Z" fill="#102D3B"/>
<path opacity="0.11" d="M195.144 309.071C194.676 309.071 194.208 308.954 193.857 308.603C193.154 307.901 193.154 306.847 193.857 306.145L597.038 -96.9091C597.74 -97.6115 598.794 -97.6115 599.496 -96.9091C600.199 -96.2067 600.199 -95.1532 599.496 -94.4508L196.432 308.603C196.081 308.954 195.613 309.071 195.144 309.071Z" fill="#102D3B"/>
<path opacity="0.11" d="M195.144 292.682C194.676 292.682 194.208 292.565 193.857 292.214C193.154 291.512 193.154 290.458 193.857 289.756L597.038 -113.298C597.74 -114.001 598.794 -114.001 599.496 -113.298C600.199 -112.596 600.199 -111.542 599.496 -110.84L196.432 292.214C196.081 292.565 195.613 292.682 195.144 292.682Z" fill="#102D3B"/>
<path opacity="0.11" d="M195.144 276.293C194.676 276.293 194.208 276.176 193.857 275.825C193.154 275.123 193.154 274.069 193.857 273.367L597.038 -129.687C597.74 -130.39 598.794 -130.39 599.496 -129.687C600.199 -128.985 600.199 -127.931 599.496 -127.229L196.432 275.825C196.081 276.176 195.613 276.293 195.144 276.293Z" fill="#102D3B"/>
<path opacity="0.11" d="M195.144 259.904C194.676 259.904 194.208 259.787 193.857 259.436C193.154 258.734 193.154 257.68 193.857 256.978L597.038 -146.076C597.74 -146.779 598.794 -146.779 599.496 -146.076C600.199 -145.374 600.199 -144.32 599.496 -143.618L196.432 259.436C196.081 259.787 195.613 259.904 195.144 259.904Z" fill="#102D3B"/>
<path opacity="0.11" d="M195.144 243.515C194.676 243.515 194.208 243.398 193.857 243.047C193.154 242.345 193.154 241.291 193.857 240.589L597.038 -162.465C597.74 -163.168 598.794 -163.168 599.496 -162.465C600.199 -161.763 600.199 -160.709 599.496 -160.007L196.432 243.047C196.081 243.398 195.613 243.515 195.144 243.515Z" fill="#102D3B"/>
<path opacity="0.11" d="M195.144 227.125C194.676 227.125 194.208 227.008 193.857 226.657C193.154 225.955 193.154 224.901 193.857 224.199L597.038 -178.972C597.74 -179.675 598.794 -179.675 599.496 -178.972C600.199 -178.27 600.199 -177.216 599.496 -176.514L196.432 226.657C196.081 227.008 195.613 227.125 195.144 227.125Z" fill="#102D3B"/>
<path opacity="0.11" d="M195.144 210.736C194.676 210.736 194.208 210.619 193.857 210.268C193.154 209.566 193.154 208.512 193.857 207.81L597.038 -195.361C597.74 -196.064 598.794 -196.064 599.496 -195.361C600.199 -194.659 600.199 -193.605 599.496 -192.903L196.432 210.268C196.081 210.619 195.613 210.736 195.144 210.736Z" fill="#102D3B"/>
<path opacity="0.11" d="M195.144 194.348C194.676 194.348 194.208 194.231 193.857 193.88C193.154 193.177 193.154 192.124 193.857 191.421L597.038 -211.867C597.74 -212.569 598.794 -212.569 599.496 -211.867C600.199 -211.165 600.199 -210.111 599.496 -209.409L196.432 193.88C196.081 194.231 195.613 194.348 195.144 194.348Z" fill="#102D3B"/>
<path opacity="0.11" d="M195.144 177.959C194.676 177.959 194.208 177.842 193.857 177.49C193.154 176.788 193.154 175.735 193.857 175.032L597.038 -228.256C597.74 -228.958 598.794 -228.958 599.496 -228.256C600.199 -227.554 600.199 -226.5 599.496 -225.798L196.432 177.49C196.081 177.842 195.613 177.959 195.144 177.959Z" fill="#102D3B"/>
<path opacity="0.11" d="M195.144 161.57C194.676 161.57 194.208 161.453 193.857 161.101C193.154 160.399 193.154 159.345 193.857 158.643L597.038 -244.645C597.74 -245.347 598.794 -245.347 599.496 -244.645C600.199 -243.943 600.199 -242.889 599.496 -242.187L196.432 161.101C196.081 161.453 195.613 161.57 195.144 161.57Z" fill="#102D3B"/>
<path opacity="0.11" d="M195.144 145.181C194.676 145.181 194.208 145.064 193.857 144.712C193.154 144.01 193.154 142.956 193.857 142.254L597.038 -261.034C597.74 -261.737 598.794 -261.737 599.496 -261.034C600.199 -260.332 600.199 -259.278 599.496 -258.576L196.432 144.712C196.081 145.064 195.613 145.181 195.144 145.181Z" fill="#102D3B"/>
<path opacity="0.11" d="M195.144 128.792C194.676 128.792 194.208 128.674 193.857 128.323C193.154 127.621 193.154 126.567 193.857 125.865L597.038 -277.423C597.74 -278.126 598.794 -278.126 599.496 -277.423C600.199 -276.721 600.199 -275.667 599.496 -274.965L196.432 128.323C196.081 128.674 195.613 128.792 195.144 128.792Z" fill="#102D3B"/>
<path opacity="0.11" d="M195.144 112.403C194.676 112.403 194.208 112.285 193.857 111.934C193.154 111.232 193.154 110.178 193.857 109.476L597.038 -293.812C597.74 -294.515 598.794 -294.515 599.496 -293.812C600.199 -293.11 600.199 -292.056 599.496 -291.354L196.432 111.934C196.081 112.285 195.613 112.403 195.144 112.403Z" fill="#102D3B"/>
<path opacity="0.11" d="M195.144 96.0134C194.676 96.0134 194.208 95.8964 193.857 95.5452C193.154 94.8428 193.154 93.7892 193.857 93.0868L597.038 -310.201C597.74 -310.904 598.794 -310.904 599.496 -310.201C600.199 -309.499 600.199 -308.445 599.496 -307.743L196.432 95.5452C196.081 95.8964 195.613 96.0134 195.144 96.0134Z" fill="#102D3B"/>
<path opacity="0.11" d="M195.144 79.6243C194.676 79.6243 194.208 79.5073 193.857 79.1561C193.154 78.4537 193.154 77.4001 193.857 76.6977L560.044 -289.715C560.747 -290.417 561.8 -290.417 562.503 -289.715C563.205 -289.013 563.205 -287.959 562.503 -287.257L196.432 79.1561C196.081 79.5073 195.613 79.6243 195.144 79.6243Z" fill="#102D3B"/>
<path opacity="0.11" d="M195.144 63.2353C194.676 63.2353 194.208 63.1182 193.857 62.767C193.154 62.0646 193.154 61.011 193.857 60.3087L537.333 -283.276C538.036 -283.979 539.089 -283.979 539.792 -283.276C540.494 -282.574 540.494 -281.52 539.792 -280.818L196.432 62.767C196.081 63.1182 195.613 63.2353 195.144 63.2353Z" fill="#102D3B"/>
</g>
<path d="M521.296 13.3652H493.199V476.942H521.296V13.3652Z" fill="#3E4B4F"/>
<path opacity="0.3" d="M245.016 13.3652H225.114V476.942H245.016V13.3652Z" fill="#CCDDE5"/>
<path d="M548.221 476.942H225.114V13.3652H548.221C559.811 13.3652 569.293 22.4962 569.293 34.0857V455.519C569.293 467.225 559.811 476.942 548.221 476.942Z" stroke="#102D3B" stroke-width="8" stroke-miterlimit="10" stroke-linecap="round" stroke-linejoin="round"/>
<path d="M264.917 13.3652H225.114V476.942H264.917V13.3652Z" stroke="#102D3B" stroke-width="8" stroke-miterlimit="10" stroke-linecap="round" stroke-linejoin="round"/>
<path d="M569.293 146.819H225.114V277.932H569.293V146.819Z" fill="#FF9852"/>
<path opacity="0.6" d="M264.917 146.819V277.932" stroke="#D85639" stroke-width="8" stroke-miterlimit="10"/>
<path d="M245.016 146.819H225.114V277.932H245.016V146.819Z" fill="#FDBA5D"/>
<path opacity="0.61" d="M521.296 146.819H501.394V277.932H521.296V146.819Z" fill="#D85639"/>
<path d="M569.293 146.819H225.114V277.932H569.293V146.819Z" stroke="#102D3B" stroke-width="8" stroke-miterlimit="10" stroke-linecap="round" stroke-linejoin="round"/>
<path d="M501.628 486.307H487.228C483.482 486.307 480.438 483.263 480.438 479.517V10.7897C480.438 7.04367 483.482 4 487.228 4H501.628C505.374 4 508.418 7.04367 508.418 10.7897V479.4C508.418 483.263 505.374 486.307 501.628 486.307Z" fill="#B7C8CE"/>
<path d="M501.628 486.307H487.228C483.482 486.307 480.438 483.263 480.438 479.517V10.7897C480.438 7.04367 483.482 4 487.228 4H501.628C505.374 4 508.418 7.04367 508.418 10.7897V479.4C508.418 483.263 505.374 486.307 501.628 486.307Z" stroke="#102D3B" stroke-width="8" stroke-miterlimit="10" stroke-linecap="round" stroke-linejoin="round"/>
<path d="M296.525 530.44L261.405 510.89V476.942H296.525V530.44Z" fill="#EA3939"/>
<path opacity="0.62" d="M296.525 476.942H261.405V490.17H296.525V476.942Z" fill="#EA3939"/>
<path d="M296.525 530.44L261.405 510.89V476.942H296.525V530.44Z" stroke="#102D3B" stroke-width="8" stroke-miterlimit="10" stroke-linecap="round" stroke-linejoin="round"/>
<path d="M372.543 234.35V184.814H386.079L401.487 202.598C401.919 203.078 402.495 203.774 403.215 204.686C403.935 205.598 404.655 206.534 405.375 207.494C406.143 208.406 406.719 209.15 407.103 209.726L407.463 209.582C407.415 208.238 407.391 206.918 407.391 205.622C407.391 204.278 407.391 203.27 407.391 202.598V184.814H421.863V234.35H408.399L391.047 214.55C390.231 213.59 389.535 212.726 388.959 211.958C388.383 211.142 387.831 210.374 387.303 209.654L386.943 209.798C386.991 210.71 387.015 211.622 387.015 212.534C387.015 213.446 387.015 214.118 387.015 214.55V234.35H372.543Z" fill="#333333"/>
</svg>
