<svg viewBox="0 0 744 733" fill="none" xmlns="http://www.w3.org/2000/svg">
  <g style="mix-blend-mode:color-burn">
    <path
      fill-rule="evenodd"
      clip-rule="evenodd"
      d="M71.3456 88.5082C71.3456 86.9378 70.4267 85.5127 68.9962 84.8647C67.5658 84.2166 65.8885 84.4656 64.7079 85.5011L38.1277 108.817C37.2619 109.576 36.7654 110.672 36.7654 111.824V140.815H34.5868C32.4621 140.815 30.7082 142.476 30.5928 144.597L27.7674 196.539C25.7775 196.567 24.107 198.057 23.8567 200.037L21.1753 221.254C21.1309 221.605 21.1338 221.958 21.1812 222.302H19.3148C18.251 222.302 17.231 222.726 16.4804 223.479C15.7298 224.233 15.3103 225.255 15.3148 226.319L17.0635 644.813L17.0635 644.822C17.0684 652.156 23.0543 658.139 30.3898 658.139H78.1875C85.49 658.139 91.5084 652.306 91.5139 644.823L91.5139 644.813L93.2626 226.319C93.267 225.255 92.8476 224.233 92.0969 223.479C91.3463 222.726 90.3264 222.302 89.2626 222.302H87.3961C87.4446 221.951 87.4466 221.591 87.3993 221.233L84.6014 200.016C84.3419 198.048 82.6797 196.571 80.7016 196.539L77.9853 144.606C77.8742 142.481 76.1187 140.815 73.9908 140.815H71.3456V88.5082Z"
      fill="#C8CED0"
    />
  </g>
  <path
    d="M63.0322 640.15H15.2345C10.105 640.15 5.90812 635.953 5.90812 630.823L4.15942 212.313H74.1073L72.3586 630.823C72.3586 636.069 68.1617 640.15 63.0322 640.15Z"
    fill="#00B3C6"
  />
  <path
    d="M28.5246 630.94L26.7759 212.429H4.04288L5.79157 630.94C5.79157 636.069 9.98844 640.266 15.118 640.266H37.851C32.7215 640.15 28.5246 636.069 28.5246 630.94Z"
    fill="#00B3C6"
  />
  <path
    opacity="0.53"
    d="M49.6255 630.94L51.3742 212.429H74.1073L72.3586 630.94C72.3586 636.069 68.1617 640.266 63.0322 640.266H40.2991C45.4287 640.15 49.6255 636.069 49.6255 630.94Z"
    fill="#00B3C6"
  />
  <path
    d="M63.0322 640.15H15.2345C10.105 640.15 5.90812 635.953 5.90812 630.823L4.15942 212.313H74.1073L72.3586 630.823C72.3586 636.069 68.1617 640.15 63.0322 640.15Z"
    stroke="#1F2120"
    stroke-width="8"
    stroke-miterlimit="10"
    stroke-linecap="round"
    stroke-linejoin="round"
  />
  <path d="M68.2783 212.429H9.98842L12.6698 191.212H65.4804L68.2783 212.429Z" fill="#414141" />
  <path
    d="M68.2783 212.429H9.98842L12.6698 191.212H65.4804L68.2783 212.429Z"
    stroke="#1F2120"
    stroke-width="8"
    stroke-miterlimit="10"
    stroke-linecap="round"
    stroke-linejoin="round"
  />
  <path d="M61.7499 191.212H16.4003L19.4314 135.489H58.8354L61.7499 191.212Z" fill="#00B3C6" />
  <path d="M19.4314 135.489L16.4003 191.212H32.2552L32.6049 135.489H19.4314Z" fill="#00B3C6" />
  <path opacity="0.53" d="M60.0012 135.489L62.9157 191.212H47.0608L45.4287 135.489H60.0012Z" fill="#00B3C6" />
  <path
    d="M61.7499 191.212H16.4003L19.4314 135.489H58.8354L61.7499 191.212Z"
    stroke="#1F2120"
    stroke-width="8"
    stroke-miterlimit="10"
    stroke-linecap="round"
    stroke-linejoin="round"
  />
  <path
    d="M61.7499 191.212H16.4003L19.4314 135.489H58.8354L61.7499 191.212Z"
    stroke="#1F2120"
    stroke-width="8"
    stroke-miterlimit="10"
    stroke-linecap="round"
    stroke-linejoin="round"
  />
  <path
    d="M61.7499 191.212H16.4003L19.4314 135.489H58.8354L61.7499 191.212Z"
    stroke="#1F2120"
    stroke-width="8"
    stroke-miterlimit="10"
    stroke-linecap="round"
    stroke-linejoin="round"
  />
  <path
    d="M61.7499 191.212H16.4003L19.4314 135.489H58.8354L61.7499 191.212Z"
    stroke="#1F2120"
    stroke-width="8"
    stroke-miterlimit="10"
    stroke-linecap="round"
    stroke-linejoin="round"
  />
  <path d="M52.1903 135.489H25.6101V102.497L52.1903 79.182V135.489Z" fill="#FFC41D" />
  <path
    d="M52.1903 135.489H25.6101V102.497L52.1903 79.182V135.489Z"
    stroke="#1F2120"
    stroke-width="8"
    stroke-miterlimit="10"
    stroke-linecap="round"
    stroke-linejoin="round"
  />
  <path
    d="M5.67505 601.679L5.7916 630.823C5.7916 635.953 9.98847 640.15 15.118 640.15H62.9157C68.0452 640.15 72.2421 635.953 72.2421 630.823L72.3586 601.679H5.67505Z"
    fill="#414141"
  />
  <path
    opacity="0.4"
    d="M49.8587 601.679L49.7422 630.823C49.7422 635.953 45.5453 640.15 40.4158 640.15H62.9157C68.0452 640.15 72.2421 635.953 72.2421 630.823L72.3586 601.679H49.8587Z"
    fill="#414141"
  />
  <path
    d="M29.1075 630.94L28.991 601.796H5.67505L5.7916 630.94C5.7916 636.069 9.98847 640.266 15.118 640.266H38.4339C33.3044 640.15 29.2241 636.069 29.1075 630.94Z"
    fill="#414141"
  />
  <path
    d="M5.67505 601.679L5.7916 630.823C5.7916 635.953 9.98847 640.15 15.118 640.15H62.9157C68.0452 640.15 72.2421 635.953 72.2421 630.823L72.3586 601.679H5.67505Z"
    stroke="#1F2120"
    stroke-width="8"
    stroke-miterlimit="10"
    stroke-linecap="round"
    stroke-linejoin="round"
  />
  <g style="mix-blend-mode:color-burn">
    <path
      fill-rule="evenodd"
      clip-rule="evenodd"
      d="M172.614 75.3381C165.279 75.3381 158.18 81.1787 158.18 89.1491V125.172H157.508C155.299 125.172 153.508 126.963 153.508 129.172V159.432H151.279C149.07 159.432 147.279 161.223 147.279 163.432V397.481C146.974 398.543 147.119 399.699 147.707 400.666C157.39 416.562 157.293 435.09 147.839 449.249C147.455 449.801 147.205 450.456 147.14 451.17C143.853 487.168 143.846 523.18 147.126 557.651C147.427 578.763 154.549 598.869 161.648 618.91L161.649 618.912C163.109 623.035 164.568 627.154 165.967 631.28V639.967C165.967 642.176 167.758 643.967 169.967 643.967H172.196V661.769C172.196 663.978 173.987 665.769 176.196 665.769C178.405 665.769 180.196 663.978 180.196 661.769V643.967H182.426C184.635 643.967 186.426 642.176 186.426 639.967V632.501C186.527 632.311 186.613 632.111 186.683 631.902C188.146 627.569 189.679 623.241 191.213 618.911L191.213 618.91C198.313 598.866 205.436 578.758 205.735 557.643C209.012 523.191 209.007 487.199 205.725 451.22C205.714 451.075 205.694 450.932 205.667 450.789C205.637 450.63 205.598 450.474 205.55 450.322C205.431 449.947 205.258 449.596 205.041 449.279C195.568 435.116 195.464 416.573 205.153 400.666C205.906 399.431 205.933 397.886 205.225 396.626C205.189 396.563 205.152 396.501 205.114 396.44V298.039L215.058 311.146C216.096 312.515 217.892 313.068 219.52 312.52C221.148 311.972 222.244 310.446 222.244 308.729V213.297C222.244 213.287 222.245 213.276 222.245 213.266V185.235C222.245 183.026 220.454 181.235 218.245 181.235H205.114V163.432C205.114 161.223 203.323 159.432 201.114 159.432H198.884V129.172C198.884 126.963 197.094 125.172 194.884 125.172H194.212V89.1491C194.212 81.4893 188.061 75.3381 180.401 75.3381H172.614Z"
      fill="#C8CED0"
    />
  </g>
  <path
    d="M190.836 443.747C174.017 443.747 157.042 443.747 140.222 443.747C150.656 428.174 150.656 407.929 140.222 390.799C157.042 390.799 174.017 390.799 190.836 390.799C180.402 407.929 180.402 428.174 190.836 443.747Z"
    fill="#102D3B"
  />
  <path d="M190.212 155.646H140.377V390.799H190.212V155.646Z" fill="#526066" />
  <path d="M190.212 155.646H140.377V390.799H190.212V155.646Z" fill="#526066" />
  <path opacity="0.64" d="M155.951 155.646H140.377V390.799H155.951V155.646Z" fill="#526066" />
  <path opacity="0.3" d="M190.212 155.646H176.196V390.799H190.212V155.646Z" fill="#526066" />
  <path
    d="M190.212 155.646H140.377V390.799H190.212V155.646Z"
    stroke="#102D3B"
    stroke-width="8"
    stroke-miterlimit="10"
    stroke-linecap="round"
    stroke-linejoin="round"
  />
  <path
    d="M190.836 549.643C174.016 549.643 157.041 549.643 140.222 549.643C136.952 515.383 136.952 479.565 140.222 443.747C157.041 443.747 174.016 443.747 190.836 443.747C194.106 479.565 194.106 515.383 190.836 549.643Z"
    fill="#42708A"
  />
  <path
    d="M190.836 549.643C174.016 549.643 157.041 549.643 140.222 549.643C136.952 515.383 136.952 479.565 140.222 443.747C157.041 443.747 174.016 443.747 190.836 443.747C194.106 479.565 194.106 515.383 190.836 549.643Z"
    fill="#526066"
  />
  <path
    opacity="0.3"
    d="M190.835 443.747C186.786 443.747 182.736 443.747 178.687 443.747C181.958 479.565 181.958 515.383 178.687 549.643C182.736 549.643 186.786 549.643 190.835 549.643C194.105 515.383 194.105 479.565 190.835 443.747Z"
    fill="#526066"
  />
  <path
    opacity="0.73"
    d="M158.131 548.086C155.639 548.086 153.303 548.086 150.812 548.086C147.541 514.293 147.541 479.098 150.656 443.747C153.148 443.747 155.639 443.747 158.131 443.747C155.016 479.098 155.016 514.293 158.131 548.086Z"
    fill="#CCDDE5"
  />
  <path
    d="M190.836 549.643C174.016 549.643 157.041 549.643 140.222 549.643C136.952 515.383 136.952 479.565 140.222 443.747C157.041 443.747 174.016 443.747 190.836 443.747C194.106 479.565 194.106 515.383 190.836 549.643Z"
    stroke="#102D3B"
    stroke-width="8"
    stroke-miterlimit="10"
    stroke-linecap="round"
    stroke-linejoin="round"
  />
  <path
    d="M193.327 481.122H137.263V513.825H193.327V481.122Z"
    stroke="#102D3B"
    stroke-width="8"
    stroke-miterlimit="10"
    stroke-linecap="round"
    stroke-linejoin="round"
  />
  <path
    d="M190.836 443.747C174.017 443.747 157.042 443.747 140.222 443.747C150.656 428.174 150.656 407.929 140.222 390.799C157.042 390.799 174.017 390.799 190.836 390.799C180.402 407.929 180.402 428.174 190.836 443.747Z"
    stroke="#102D3B"
    stroke-width="8"
    stroke-miterlimit="10"
    stroke-linecap="round"
    stroke-linejoin="round"
  />
  <path
    d="M171.992 622.837C180.402 597.92 190.524 574.56 190.836 549.643H140.222C140.534 574.56 150.656 597.92 159.066 622.837H171.992Z"
    fill="#CCDDE5"
  />
  <path
    d="M190.836 549.643C190.836 550.111 190.836 550.733 190.836 551.201H157.509C157.665 575.65 162.025 599.01 167.164 622.837H159.066C150.656 597.92 140.534 574.56 140.222 549.643H190.836Z"
    fill="white"
  />
  <path
    d="M171.992 622.837C180.402 597.92 190.524 574.56 190.836 549.643H140.222C140.534 574.56 150.656 597.92 159.066 622.837H171.992Z"
    stroke="#102D3B"
    stroke-width="8"
    stroke-miterlimit="10"
    stroke-linecap="round"
    stroke-linejoin="round"
  />
  <path
    d="M171.524 622.837H159.065V632.18H171.524V622.837Z"
    stroke="#102D3B"
    stroke-width="8"
    stroke-miterlimit="10"
    stroke-linecap="round"
    stroke-linejoin="round"
  />
  <path
    d="M165.295 633.738V653.983"
    stroke="#102D3B"
    stroke-width="8"
    stroke-miterlimit="10"
    stroke-linecap="round"
    stroke-linejoin="round"
  />
  <path
    d="M183.983 121.385H146.607V155.646H183.983V121.385Z"
    stroke="#102D3B"
    stroke-width="8"
    stroke-miterlimit="10"
    stroke-linecap="round"
    stroke-linejoin="round"
  />
  <path d="M183.983 121.385H146.607V155.646H183.983V121.385Z" fill="#102D3B" />
  <path
    d="M179.311 121.385H151.279V81.3626C151.279 75.9121 156.262 71.5516 161.713 71.5516H169.5C174.95 71.5516 179.311 75.9121 179.311 81.3626V121.385Z"
    fill="#CCDDE5"
  />
  <path
    d="M179.311 121.385H151.279V81.3626C151.279 75.9121 156.262 71.5516 161.713 71.5516H169.5C174.95 71.5516 179.311 75.9121 179.311 81.3626V121.385Z"
    stroke="#102D3B"
    stroke-width="8"
    stroke-miterlimit="10"
    stroke-linecap="round"
    stroke-linejoin="round"
  />
  <path d="M207.343 177.448H159.065V205.48H207.343V177.448Z" fill="#CCDDE5" />
  <path
    d="M207.343 177.448H159.065V205.48H207.343V177.448Z"
    stroke="#102D3B"
    stroke-width="8"
    stroke-miterlimit="10"
    stroke-linecap="round"
    stroke-linejoin="round"
  />
  <path d="M207.343 300.942L190.212 278.361V205.48H207.343V300.942Z" fill="#CCDDE5" />
  <path
    d="M207.343 300.942L190.212 278.361V205.48H207.343V300.942Z"
    stroke="#102D3B"
    stroke-width="8"
    stroke-miterlimit="10"
    stroke-linecap="round"
    stroke-linejoin="round"
  />
  <g style="mix-blend-mode:color-burn">
    <path
      fill-rule="evenodd"
      clip-rule="evenodd"
      d="M629.105 24.1808C622.536 24.1808 617.318 29.3976 617.318 35.9673V36.6392H281.818C279.609 36.6392 277.818 38.43 277.818 40.6392V657.331C277.818 659.54 279.609 661.331 281.818 661.331H326.095V702.493C326.095 703.944 326.882 705.282 328.15 705.988L374.87 731.994C376.109 732.684 377.62 732.666 378.843 731.948C380.065 731.229 380.816 729.917 380.816 728.499V661.331H617.318V662.003C617.318 668.572 622.536 673.789 629.105 673.789H650.908C657.478 673.789 662.695 668.572 662.695 662.003V661.331H711.644C729.342 661.331 743.676 646.543 743.676 628.832V68.2034C743.676 50.4897 729.183 36.6392 711.644 36.6392H662.695V35.9673C662.695 29.3976 657.478 24.1808 650.908 24.1808H629.105Z"
      fill="#ACB6B9"
    />
  </g>
  <path
    d="M696.071 633.971H266.244V17.2796H696.071C711.488 17.2796 724.103 29.4266 724.103 44.8439V605.473C724.103 621.046 711.488 633.971 696.071 633.971Z"
    fill="#4C5B60"
  />
  <mask id="mask0_24_722" style="mask-type:alpha" maskUnits="userSpaceOnUse" x="266" y="20" width="459" height="618">
    <path
      d="M696.071 637.086H266.244V20.3943H696.071C711.488 20.3943 724.103 32.5412 724.103 47.9585V608.587C724.103 624.16 711.488 637.086 696.071 637.086Z"
      fill="white"
    />
  </mask>
  <g mask="url(#mask0_24_722)">
    <path
      opacity="0.11"
      d="M226.376 1108.33C225.753 1108.33 225.13 1108.17 224.663 1107.7C223.728 1106.77 223.728 1105.37 224.663 1104.43L761.011 568.254C761.946 567.32 763.347 567.32 764.282 568.254C765.216 569.189 765.216 570.59 764.282 571.525L228.089 1107.7C227.622 1108.17 226.999 1108.33 226.376 1108.33Z"
      fill="#102D3B"
    />
    <path
      opacity="0.11"
      d="M226.376 1086.52C225.753 1086.52 225.13 1086.37 224.663 1085.9C223.728 1084.97 223.728 1083.57 224.663 1082.63L761.011 546.452C761.946 545.518 763.347 545.518 764.282 546.452C765.216 547.386 765.216 548.788 764.282 549.722L228.089 1085.9C227.622 1086.37 226.999 1086.52 226.376 1086.52Z"
      fill="#102D3B"
    />
    <path
      opacity="0.11"
      d="M226.376 1064.72C225.753 1064.72 225.13 1064.57 224.663 1064.1C223.728 1063.16 223.728 1061.76 224.663 1060.83L761.011 524.65C761.946 523.715 763.347 523.715 764.282 524.65C765.216 525.584 765.216 526.986 764.282 527.92L228.089 1064.1C227.622 1064.57 226.999 1064.72 226.376 1064.72Z"
      fill="#102D3B"
    />
    <path
      opacity="0.11"
      d="M226.376 1042.92C225.753 1042.92 225.13 1042.76 224.663 1042.3C223.728 1041.36 223.728 1039.96 224.663 1039.03L761.011 502.847C761.946 501.913 763.347 501.913 764.282 502.847C765.216 503.782 765.216 505.183 764.282 506.118L228.089 1042.3C227.622 1042.76 226.999 1042.92 226.376 1042.92Z"
      fill="#102D3B"
    />
    <path
      opacity="0.11"
      d="M226.376 1021.12C225.753 1021.12 225.13 1020.96 224.663 1020.49C223.728 1019.56 223.728 1018.16 224.663 1017.22L761.011 481.045C761.946 480.111 763.347 480.111 764.282 481.045C765.216 481.98 765.216 483.381 764.282 484.316L228.089 1020.49C227.622 1020.96 226.999 1021.12 226.376 1021.12Z"
      fill="#102D3B"
    />
    <path
      opacity="0.11"
      d="M226.376 999.315C225.753 999.315 225.13 999.16 224.663 998.693C223.728 997.758 223.728 996.357 224.663 995.422L761.011 459.243C761.946 458.309 763.347 458.309 764.282 459.243C765.216 460.177 765.216 461.579 764.282 462.513L228.089 998.693C227.622 999.16 226.999 999.315 226.376 999.315Z"
      fill="#102D3B"
    />
    <path
      opacity="0.11"
      d="M226.376 977.513C225.753 977.513 225.13 977.357 224.663 976.89C223.728 975.956 223.728 974.554 224.663 973.62L761.011 437.441C761.946 436.506 763.347 436.506 764.282 437.441C765.216 438.375 765.216 439.777 764.282 440.711L228.089 976.89C227.622 977.357 226.999 977.513 226.376 977.513Z"
      fill="#102D3B"
    />
    <path
      opacity="0.11"
      d="M226.376 955.711C225.753 955.711 225.13 955.555 224.663 955.088C223.728 954.154 223.728 952.752 224.663 951.818L761.011 415.639C761.946 414.704 763.347 414.704 764.282 415.639C765.216 416.573 765.216 417.975 764.282 418.909L228.089 955.088C227.622 955.555 226.999 955.711 226.376 955.711Z"
      fill="#102D3B"
    />
    <path
      opacity="0.11"
      d="M226.376 933.909C225.753 933.909 225.13 933.753 224.663 933.286C223.728 932.352 223.728 930.95 224.663 930.016L761.011 393.836C761.946 392.902 763.347 392.902 764.282 393.836C765.216 394.771 765.216 396.172 764.282 397.107L228.089 933.286C227.622 933.753 226.999 933.909 226.376 933.909Z"
      fill="#102D3B"
    />
    <path
      opacity="0.11"
      d="M226.376 912.106C225.753 912.106 225.13 911.951 224.663 911.484C223.728 910.549 223.728 909.148 224.663 908.213L761.011 372.034C761.946 371.1 763.347 371.1 764.282 372.034C765.216 372.968 765.216 374.37 764.282 375.304L228.089 911.484C227.622 911.951 226.999 912.106 226.376 912.106Z"
      fill="#102D3B"
    />
    <path
      opacity="0.11"
      d="M226.376 890.304C225.753 890.304 225.13 890.149 224.663 889.681C223.728 888.747 223.728 887.345 224.663 886.411L761.011 350.232C761.946 349.297 763.347 349.297 764.282 350.232C765.216 351.166 765.216 352.568 764.282 353.502L228.089 889.681C227.622 890.149 226.999 890.304 226.376 890.304Z"
      fill="#102D3B"
    />
    <path
      opacity="0.11"
      d="M226.376 868.502C225.753 868.502 225.13 868.346 224.663 867.879C223.728 866.945 223.728 865.543 224.663 864.609L761.011 328.43C761.946 327.495 763.347 327.495 764.282 328.43C765.216 329.364 765.216 330.766 764.282 331.7L228.089 867.879C227.622 868.346 226.999 868.502 226.376 868.502Z"
      fill="#102D3B"
    />
    <path
      opacity="0.11"
      d="M226.376 846.7C225.753 846.7 225.13 846.544 224.663 846.077C223.728 845.143 223.728 843.741 224.663 842.807L761.011 306.627C761.946 305.693 763.347 305.693 764.282 306.627C765.216 307.562 765.216 308.963 764.282 309.898L228.089 846.077C227.622 846.544 226.999 846.7 226.376 846.7Z"
      fill="#102D3B"
    />
    <path
      opacity="0.11"
      d="M226.376 824.897C225.753 824.897 225.13 824.742 224.663 824.275C223.728 823.34 223.728 821.939 224.663 821.004L761.011 284.825C761.946 283.891 763.347 283.891 764.282 284.825C765.216 285.759 765.216 287.161 764.282 288.095L228.089 824.275C227.622 824.742 226.999 824.897 226.376 824.897Z"
      fill="#102D3B"
    />
    <path
      opacity="0.11"
      d="M226.376 803.095C225.753 803.095 225.13 802.94 224.663 802.472C223.728 801.538 223.728 800.136 224.663 799.202L761.011 263.023C761.946 262.089 763.347 262.089 764.282 263.023C765.216 263.957 765.216 265.359 764.282 266.293L228.089 802.472C227.622 802.94 226.999 803.095 226.376 803.095Z"
      fill="#102D3B"
    />
    <path
      opacity="0.11"
      d="M226.376 781.293C225.753 781.293 225.13 781.137 224.663 780.67C223.728 779.736 223.728 778.334 224.663 777.4L761.011 241.221C761.946 240.286 763.347 240.286 764.282 241.221C765.216 242.155 765.216 243.557 764.282 244.491L228.089 780.67C227.622 781.137 226.999 781.293 226.376 781.293Z"
      fill="#102D3B"
    />
    <path
      opacity="0.11"
      d="M226.376 759.491C225.753 759.491 225.13 759.335 224.663 758.868C223.728 757.934 223.728 756.532 224.663 755.598L761.011 219.418C761.946 218.484 763.347 218.484 764.282 219.418C765.216 220.353 765.216 221.754 764.282 222.689L228.089 758.868C227.622 759.335 226.999 759.491 226.376 759.491Z"
      fill="#102D3B"
    />
    <path
      opacity="0.11"
      d="M226.376 737.689C225.753 737.689 225.13 737.533 224.663 737.066C223.728 736.131 223.728 734.73 224.663 733.795L761.011 197.616C761.946 196.682 763.347 196.682 764.282 197.616C765.216 198.551 765.216 199.952 764.282 200.887L228.089 737.066C227.622 737.533 226.999 737.689 226.376 737.689Z"
      fill="#102D3B"
    />
    <path
      opacity="0.11"
      d="M226.376 715.886C225.753 715.886 225.13 715.731 224.663 715.264C223.728 714.329 223.728 712.928 224.663 711.993L761.011 175.814C761.946 174.88 763.347 174.88 764.282 175.814C765.216 176.748 765.216 178.15 764.282 179.084L228.089 715.264C227.622 715.731 226.999 715.886 226.376 715.886Z"
      fill="#102D3B"
    />
    <path
      opacity="0.11"
      d="M226.376 694.084C225.753 694.084 225.13 693.928 224.663 693.461C223.728 692.527 223.728 691.125 224.663 690.191L761.011 154.012C761.946 153.077 763.347 153.077 764.282 154.012C765.216 154.946 765.216 156.348 764.282 157.282L228.089 693.461C227.622 693.928 226.999 694.084 226.376 694.084Z"
      fill="#102D3B"
    />
    <path
      opacity="0.11"
      d="M226.376 672.282C225.753 672.282 225.13 672.126 224.663 671.659C223.728 670.725 223.728 669.323 224.663 668.389L761.011 132.21C761.946 131.275 763.347 131.275 764.282 132.21C765.216 133.144 765.216 134.546 764.282 135.48L228.089 671.659C227.622 672.126 226.999 672.282 226.376 672.282Z"
      fill="#102D3B"
    />
    <path
      opacity="0.11"
      d="M226.376 650.48C225.753 650.48 225.13 650.324 224.663 649.857C223.728 648.922 223.728 647.521 224.663 646.586L761.011 110.407C761.946 109.473 763.347 109.473 764.282 110.407C765.216 111.342 765.216 112.743 764.282 113.678L228.089 649.857C227.622 650.324 226.999 650.48 226.376 650.48Z"
      fill="#102D3B"
    />
    <path
      opacity="0.11"
      d="M226.376 628.677C225.753 628.677 225.13 628.522 224.663 628.055C223.728 627.12 223.728 625.719 224.663 624.784L761.011 88.6051C761.946 87.6707 763.347 87.6707 764.282 88.6051C765.216 89.5395 765.216 90.941 764.282 91.8754L228.089 628.055C227.622 628.522 226.999 628.677 226.376 628.677Z"
      fill="#102D3B"
    />
    <path
      opacity="0.11"
      d="M226.376 606.875C225.753 606.875 225.13 606.72 224.663 606.252C223.728 605.318 223.728 603.916 224.663 602.982L761.011 66.8029C761.946 65.8685 763.347 65.8685 764.282 66.8029C765.216 67.7372 765.216 69.1388 764.282 70.0732L228.089 606.252C227.622 606.72 226.999 606.875 226.376 606.875Z"
      fill="#102D3B"
    />
    <path
      opacity="0.11"
      d="M226.376 585.073C225.753 585.073 225.13 584.917 224.663 584.45C223.728 583.516 223.728 582.114 224.663 581.18L761.011 45.0006C761.946 44.0662 763.347 44.0662 764.282 45.0006C765.216 45.935 765.216 47.3366 764.282 48.271L228.089 584.45C227.622 584.917 226.999 585.073 226.376 585.073Z"
      fill="#102D3B"
    />
    <path
      opacity="0.11"
      d="M226.376 563.271C225.753 563.271 225.13 563.115 224.663 562.648C223.728 561.713 223.728 560.312 224.663 559.377L761.011 23.1984C761.946 22.264 763.347 22.264 764.282 23.1984C765.216 24.1328 765.216 25.5344 764.282 26.4687L228.089 562.648C227.622 563.115 226.999 563.271 226.376 563.271Z"
      fill="#102D3B"
    />
    <path
      opacity="0.11"
      d="M226.376 541.469C225.753 541.469 225.13 541.313 224.663 540.846C223.728 539.911 223.728 538.51 224.663 537.575L761.011 1.39619C761.946 0.461809 763.347 0.461809 764.282 1.39619C765.216 2.33057 765.216 3.73215 764.282 4.66653L228.089 540.846C227.622 541.313 226.999 541.469 226.376 541.469Z"
      fill="#102D3B"
    />
    <path
      opacity="0.11"
      d="M226.376 519.666C225.753 519.666 225.13 519.511 224.663 519.043C223.728 518.109 223.728 516.707 224.663 515.773L761.011 -20.4061C761.946 -21.3404 763.347 -21.3404 764.282 -20.4061C765.216 -19.4717 765.216 -18.0701 764.282 -17.1357L228.089 519.043C227.622 519.511 226.999 519.666 226.376 519.666Z"
      fill="#102D3B"
    />
    <path
      opacity="0.11"
      d="M226.376 497.864C225.753 497.864 225.13 497.708 224.663 497.241C223.728 496.307 223.728 494.905 224.663 493.971L761.011 -42.2083C761.946 -43.1427 763.347 -43.1427 764.282 -42.2083C765.216 -41.2739 765.216 -39.8723 764.282 -38.938L228.089 497.241C227.622 497.708 226.999 497.864 226.376 497.864Z"
      fill="#102D3B"
    />
    <path
      opacity="0.11"
      d="M226.376 476.062C225.753 476.062 225.13 475.906 224.663 475.439C223.728 474.505 223.728 473.103 224.663 472.169L761.011 -64.0105C761.946 -64.9449 763.347 -64.9449 764.282 -64.0105C765.216 -63.0761 765.216 -61.6746 764.282 -60.7402L228.089 475.439C227.622 475.906 226.999 476.062 226.376 476.062Z"
      fill="#102D3B"
    />
    <path
      opacity="0.11"
      d="M226.376 454.26C225.753 454.26 225.13 454.104 224.663 453.637C223.728 452.702 223.728 451.301 224.663 450.366L761.011 -85.8127C761.946 -86.7471 763.347 -86.7471 764.282 -85.8127C765.216 -84.8784 765.216 -83.4768 764.282 -82.5424L228.089 453.637C227.622 454.104 226.999 454.26 226.376 454.26Z"
      fill="#102D3B"
    />
    <path
      opacity="0.11"
      d="M226.376 432.457C225.753 432.457 225.13 432.302 224.663 431.835C223.728 430.9 223.728 429.499 224.663 428.564L761.011 -107.615C761.946 -108.549 763.347 -108.549 764.282 -107.615C765.216 -106.681 765.216 -105.279 764.282 -104.345L228.089 431.835C227.622 432.302 226.999 432.457 226.376 432.457Z"
      fill="#102D3B"
    />
    <path
      opacity="0.11"
      d="M226.376 410.655C225.753 410.655 225.13 410.499 224.663 410.032C223.728 409.098 223.728 407.696 224.663 406.762L761.011 -129.417C761.946 -130.352 763.347 -130.352 764.282 -129.417C765.216 -128.483 765.216 -127.081 764.282 -126.147L228.089 410.032C227.622 410.499 226.999 410.655 226.376 410.655Z"
      fill="#102D3B"
    />
    <path
      opacity="0.11"
      d="M226.376 388.853C225.753 388.853 225.13 388.697 224.663 388.23C223.728 387.296 223.728 385.894 224.663 384.96L761.011 -151.219C761.946 -152.154 763.347 -152.154 764.282 -151.219C765.216 -150.285 765.216 -148.883 764.282 -147.949L228.089 388.23C227.622 388.697 226.999 388.853 226.376 388.853Z"
      fill="#102D3B"
    />
    <path
      opacity="0.11"
      d="M226.376 367.051C225.753 367.051 225.13 366.895 224.663 366.428C223.728 365.493 223.728 364.092 224.663 363.157L761.011 -173.022C761.946 -173.956 763.347 -173.956 764.282 -173.022C765.216 -172.087 765.216 -170.686 764.282 -169.751L228.089 366.428C227.622 366.895 226.999 367.051 226.376 367.051Z"
      fill="#102D3B"
    />
    <path
      opacity="0.11"
      d="M226.376 345.248C225.753 345.248 225.13 345.093 224.663 344.626C223.728 343.691 223.728 342.29 224.663 341.355L761.011 -194.824C761.946 -195.758 763.347 -195.758 764.282 -194.824C765.216 -193.889 765.216 -192.488 764.282 -191.554L228.089 344.626C227.622 345.093 226.999 345.248 226.376 345.248Z"
      fill="#102D3B"
    />
    <path
      opacity="0.11"
      d="M226.376 323.446C225.753 323.446 225.13 323.29 224.663 322.823C223.728 321.889 223.728 320.487 224.663 319.553L761.011 -216.626C761.946 -217.56 763.347 -217.56 764.282 -216.626C765.216 -215.692 765.216 -214.29 764.282 -213.356L228.089 322.823C227.622 323.29 226.999 323.446 226.376 323.446Z"
      fill="#102D3B"
    />
    <path
      opacity="0.11"
      d="M226.376 301.643C225.753 301.643 225.13 301.487 224.663 301.02C223.728 300.086 223.728 298.684 224.663 297.75L761.011 -238.585C761.946 -239.519 763.347 -239.519 764.282 -238.585C765.216 -237.651 765.216 -236.249 764.282 -235.315L228.089 301.02C227.622 301.487 226.999 301.643 226.376 301.643Z"
      fill="#102D3B"
    />
    <path
      opacity="0.11"
      d="M226.376 279.841C225.753 279.841 225.13 279.685 224.663 279.218C223.728 278.284 223.728 276.882 224.663 275.948L761.011 -260.387C761.946 -261.322 763.347 -261.322 764.282 -260.387C765.216 -259.453 765.216 -258.051 764.282 -257.117L228.089 279.218C227.622 279.685 226.999 279.841 226.376 279.841Z"
      fill="#102D3B"
    />
    <path
      opacity="0.11"
      d="M226.376 258.039C225.753 258.039 225.13 257.884 224.663 257.416C223.728 256.482 223.728 255.08 224.663 254.146L761.011 -282.345C761.946 -283.279 763.347 -283.279 764.282 -282.345C765.216 -281.41 765.216 -280.009 764.282 -279.074L228.089 257.416C227.622 257.884 226.999 258.039 226.376 258.039Z"
      fill="#102D3B"
    />
    <path
      opacity="0.11"
      d="M226.376 236.237C225.753 236.237 225.13 236.081 224.663 235.614C223.728 234.68 223.728 233.278 224.663 232.344L761.011 -304.147C761.946 -305.081 763.347 -305.081 764.282 -304.147C765.216 -303.212 765.216 -301.811 764.282 -300.876L228.089 235.614C227.622 236.081 226.999 236.237 226.376 236.237Z"
      fill="#102D3B"
    />
    <path
      opacity="0.11"
      d="M226.376 214.435C225.753 214.435 225.13 214.279 224.663 213.812C223.728 212.878 223.728 211.476 224.663 210.542L761.011 -325.949C761.946 -326.883 763.347 -326.883 764.282 -325.949C765.216 -325.015 765.216 -323.613 764.282 -322.679L228.089 213.812C227.622 214.279 226.999 214.435 226.376 214.435Z"
      fill="#102D3B"
    />
    <path
      opacity="0.11"
      d="M226.376 192.633C225.753 192.633 225.13 192.477 224.663 192.01C223.728 191.075 223.728 189.674 224.663 188.739L761.011 -347.751C761.946 -348.686 763.347 -348.686 764.282 -347.751C765.216 -346.817 765.216 -345.415 764.282 -344.481L228.089 192.01C227.622 192.477 226.999 192.633 226.376 192.633Z"
      fill="#102D3B"
    />
    <path
      opacity="0.11"
      d="M226.376 170.83C225.753 170.83 225.13 170.675 224.663 170.207C223.728 169.273 223.728 167.871 224.663 166.937L761.011 -369.553C761.946 -370.488 763.347 -370.488 764.282 -369.553C765.216 -368.619 765.216 -367.218 764.282 -366.283L228.089 170.207C227.622 170.675 226.999 170.83 226.376 170.83Z"
      fill="#102D3B"
    />
    <path
      opacity="0.11"
      d="M226.376 149.028C225.753 149.028 225.13 148.872 224.663 148.405C223.728 147.471 223.728 146.069 224.663 145.135L761.011 -391.356C761.946 -392.29 763.347 -392.29 764.282 -391.356C765.216 -390.421 765.216 -389.02 764.282 -388.085L228.089 148.405C227.622 148.872 226.999 149.028 226.376 149.028Z"
      fill="#102D3B"
    />
    <path
      opacity="0.11"
      d="M226.376 127.226C225.753 127.226 225.13 127.07 224.663 126.603C223.728 125.669 223.728 124.267 224.663 123.333L761.011 -413.158C761.946 -414.092 763.347 -414.092 764.282 -413.158C765.216 -412.224 765.216 -410.822 764.282 -409.888L228.089 126.603C227.622 127.07 226.999 127.226 226.376 127.226Z"
      fill="#102D3B"
    />
    <path
      opacity="0.11"
      d="M226.376 105.424C225.753 105.424 225.13 105.268 224.663 104.801C223.728 103.866 223.728 102.465 224.663 101.53L711.799 -385.905C712.734 -386.84 714.135 -386.84 715.07 -385.905C716.004 -384.971 716.004 -383.569 715.07 -382.635L228.089 104.801C227.622 105.268 226.999 105.424 226.376 105.424Z"
      fill="#102D3B"
    />
    <path
      opacity="0.11"
      d="M226.376 83.6214C225.753 83.6214 225.13 83.4657 224.663 82.9985C223.728 82.0641 223.728 80.6626 224.663 79.7282L681.587 -377.34C682.521 -378.274 683.923 -378.274 684.857 -377.34C685.792 -376.406 685.792 -375.004 684.857 -374.07L228.089 82.9985C227.622 83.4657 226.999 83.6214 226.376 83.6214Z"
      fill="#102D3B"
    />
  </g>
  <path d="M660.252 17.2796H622.876V633.971H660.252V17.2796Z" fill="#3E4B4F" />
  <path opacity="0.3" d="M292.719 17.2796H266.244V633.971H292.719V17.2796Z" fill="#CCDDE5" />
  <path
    d="M696.071 633.971H266.244V17.2796H696.071C711.488 17.2796 724.103 29.4266 724.103 44.8439V605.473C724.103 621.046 711.488 633.971 696.071 633.971Z"
    stroke="#102D3B"
    stroke-width="8"
    stroke-miterlimit="10"
    stroke-linecap="round"
    stroke-linejoin="round"
  />
  <path
    d="M319.194 17.2796H266.244V633.971H319.194V17.2796Z"
    stroke="#102D3B"
    stroke-width="8"
    stroke-miterlimit="10"
    stroke-linecap="round"
    stroke-linejoin="round"
  />
  <path d="M724.103 194.812H266.244V369.23H724.103V194.812Z" fill="#FF9852" />
  <path opacity="0.6" d="M319.194 194.812V369.23" stroke="#D85639" stroke-width="8" stroke-miterlimit="10" />
  <path d="M292.719 194.812H266.244V369.23H292.719V194.812Z" fill="#FDBA5D" />
  <path opacity="0.61" d="M660.252 194.812H633.777V369.23H660.252V194.812Z" fill="#D85639" />
  <path
    d="M724.103 194.812H266.244V369.23H724.103V194.812Z"
    stroke="#102D3B"
    stroke-width="8"
    stroke-miterlimit="10"
    stroke-linecap="round"
    stroke-linejoin="round"
  />
  <path
    d="M634.088 646.43H614.933C609.949 646.43 605.9 642.381 605.9 637.397V13.8536C605.9 8.87019 609.949 4.82123 614.933 4.82123H634.088C639.072 4.82123 643.121 8.87019 643.121 13.8536V637.242C643.121 642.381 639.072 646.43 634.088 646.43Z"
    fill="#B7C8CE"
  />
  <path
    d="M634.088 646.43H614.933C609.949 646.43 605.9 642.381 605.9 637.397V13.8536C605.9 8.87019 609.949 4.82123 614.933 4.82123H634.088C639.072 4.82123 643.121 8.87019 643.121 13.8536V637.242C643.121 642.381 639.072 646.43 634.088 646.43Z"
    stroke="#102D3B"
    stroke-width="8"
    stroke-miterlimit="10"
    stroke-linecap="round"
    stroke-linejoin="round"
  />
  <path d="M361.242 705.14L314.522 679.133V633.971H361.242V705.14Z" fill="#EA3939" />
  <path opacity="0.62" d="M361.242 633.971H314.522V651.569H361.242V633.971Z" fill="#EA3939" />
  <path
    d="M361.242 705.14L314.522 679.133V633.971H361.242V705.14Z"
    stroke="#102D3B"
    stroke-width="8"
    stroke-miterlimit="10"
    stroke-linecap="round"
    stroke-linejoin="round"
  />
  <path
    d="M470.513 290.445V240.909H484.049L499.457 258.693C499.889 259.173 500.465 259.869 501.185 260.781C501.905 261.693 502.625 262.629 503.345 263.589C504.113 264.501 504.689 265.245 505.073 265.821L505.433 265.677C505.385 264.333 505.361 263.013 505.361 261.717C505.361 260.373 505.361 259.365 505.361 258.693V240.909H519.833V290.445H506.369L489.017 270.645C488.201 269.685 487.505 268.821 486.929 268.053C486.353 267.237 485.801 266.469 485.273 265.749L484.913 265.893C484.961 266.805 484.985 267.717 484.985 268.629C484.985 269.541 484.985 270.213 484.985 270.645V290.445H470.513Z"
    fill="#333333"
  />
</svg>
